{
  "title": "The.Martian.2015.HD-TS.XVID.AC3.HQ.Hive-CM8",
  "uid": 12544981,
  "size": 2128758263,
  "categoryP": "video",
  "categoryS": "movies",
  "magnet": "?xt=urn:btih:4d6f77e63a295b8f495c82782c1d709faa5eb493&amp;dn=The.Martian.2015.HD-TS.XVID.AC3.HQ.Hive-CM8&amp;tr=udp%3A%2F%2Ftracker.leechers-paradise.org%3A6969&amp;tr=udp%3A%2F%2Fzer0day.ch%3A1337&amp;tr=udp%3A%2F%2Fopen.demonii.com%3A1337&amp;tr=udp%3A%2F%2Ftracker.coppersurfer.tk%3A6969&amp;tr=udp%3A%2F%2Fexodus.desync.com%3A6969",
  "seeders": 38,
  "leechers": 8,
  "uploader": "xxxlavalxxx",
  "files": 4,
  "time": 1444458671,
  "description": "http://extraimago.com/image/blO\r\n \nhttp://www.imdb.com/title/tt3659388/\r\n\r\n\r\nDuring a manned mission to Mars, Astronaut Mark Watney is presumed dead after a fierce storm and left behind by his crew. But Watney has survived and finds himself stranded and alone on the hostile planet. With only meager supplies, he must draw upon his ingenuity, wit and spirit to subsist and find a way to signal to Earth that he is alive.\r\n\r\nDirector: Ridley Scott\r\nWriters: Drew Goddard (screenplay), Andy Weir (book)\r\nStars: Matt Damon, Jessica Chastain, Kristen Wiig \r\nGenres: Adventure | Drama | Sci-Fi\r\nCountry: USA\r\nLanguage: English\r\n\r\n\r\nThe.Martian.2015.HD-TS.XVID.AC3.HQ.Hive-CM8\r\n\r\nThx Hive\r\n\r\nCM8 Doing It Right The First Time \r\n\r\nSources:\r\n\r\nVideo: Vip Internal thx m8\r\nAudio: Sweet Direct Line Big Thx to S4NDM4N\r\n\r\nNotes:\r\n\r\nfinally here comes what you were waiting for, a great blockbuster movie with perfect audio.\r\ndidnt have any watermarks, no flicker,no movement,no focus problems, no jerky frames, unlike the latino one thats out\r\nyeah and its totally complete too, perfect as it can be.\r\nkept this new vid internal till i have line, this movie deserves only the best, and now here to grab for everyone.\r\njump on it!\r\n\r\nEncode:\r\n\r\nvideo was already nice to begin with, fixed brightness,contrast,rgb and added sharpness\r\n\r\nAudio Sweet Line from S4NDM4N lipsynced to my video\r\n\r\nwill do me till retail \r\n\r\nenjoy\r\n\r\nVideo: 720x304 @bitrate 1800 2pass\r\nAudio: English AC3 2.0 Direct Stereo Line\r\nSample: yes included\r\n\r\n\r\n \nhttp://www.imdb.com/title/tt3659388/\r\n\r\n\r\n\r\nGeneral\r\nComplete name                  : The.Martian.2015.HD-TS.XVID.AC3.HQ.Hive-CM8.avi\r\nFormat                         : AVI\r\nFormat/Info                    : Audio Video Interleave\r\nFile size                      : 1.96 GiB\r\nDuration                       : 2h 16mn\r\nOverall bit rate               : 2 067 Kbps\r\nWriting application            : Nandub v1.0rc2\r\nWriting library                : Nandub build 1853/release\r\n\r\nVideo\r\nID                             : 0\r\nFormat                         : MPEG-4 Visual\r\nFormat profile                 : Advanced   \r\nFormat settings, BVOP          : 2\r\nFormat settings, QPel          : Yes\r\nFormat settings, GMC           : No warppoints\r\nFormat settings, Matrix        : Default (H.263)\r\nMuxing mode                    : Packed bitstream\r\nCodec ID                       : XVID\r\nCodec ID/Hint                  : XviD\r\nDuration                       : 2h 16mn\r\nBit rate                       : 1 799 Kbps\r\nWidth                          : 720 pixels\r\nHeight                         : 304 pixels\r\nDisplay aspect ratio           : 2.35:1\r\nFrame rate                     : 29.970 fps\r\nColor space                    : YUV\r\nChroma subsampling             : 4:2:0\r\nBit depth                      : 8 bits\r\nScan type                      : Progressive\r\nCompression mode               : Lossy\r\nBits/(Pixel*Frame)             : 0.274\r\nStream size                    : 1.71 GiB (87%)\r\nWriting library                : XviD 1.2.1 (UTC 2008-12-04)\r\n\r\nAudio\r\nID                             : 1\r\nFormat                         : AC-3\r\nFormat/Info                    : Audio Coding 3\r\nMode extension                 : CM (complete main)\r\nFormat settings, Endianness    : Big\r\nCodec ID                       : 2000\r\nDuration                       : 2h 16mn\r\nBit rate mode                  : Constant\r\nBit rate                       : 256 Kbps\r\nChannel(s)                     : 2 channels\r\nChannel positions              : Front: L R\r\nSampling rate                  : 48.0 KHz\r\nBit depth                      : 16 bits\r\nCompression mode               : Lossy\r\nStream size                    : 249 MiB (12%)\r\nAlignment                      : Split accross interleaves\r\nInterleave, duration           : 33 ms (1.00 video frame)\r\nInterleave, preload duration   : 500 ms\r\n\r\n\r\nGreetz\r\n\r\nSugarB,iNCOMiNG,Izzy,MenaceIISociety,jiinx,SiMPLE,CherryBomb\r\nranbailey,ViSiON,UnKnOwN,YanKeeS,COPYxRIGHT,THC,VAiN,ACAB,DRs\r\nLKRG,Kingstoner,ACAB,SiMPLE,TiTAN,cadance,PLAYNOW\r\nUnevano,BigVik,Rapeseed,SAFC,goldadvance,KaN1vE,Pinnz,Wayne,HiGH\r\nSeeN,jtr,Limey,ICONiK,TED,smittyman,rkofan,mrtoke09,NutSacK BoY lol\r\nMr Hive\r\n\r\na special thanks to the office , toddy and megs for letting ted be shit faced and not kick him out haha\r\n\r\na special fook you goes out to samiamb\r\n\r\ndont like it dont download it and move along\r\n\r\n\r\nLOOKING FOR ANYTHING YOU WANT TO LOOK AND SOUND BETTER\r\n\r\nCOME FIND US WE DONT BITE \r\n  \r\n\r\n \nhttp://extraimago.com/image/3ms \nhttp://extraimago.com/image/3m7 \nhttp://extraimago.com/image/3mc \nhttp://extraimago.com/image/3m1 \nhttp://extraimago.com/image/3mE \nhttp://extraimago.com/image/3mO \nhttp://extraimago.com/image/3mS \nhttp://extraimago.com/image/3mq \nhttp://extraimago.com/image/3my \nhttp://extraimago.com/image/3mL",
  "parsed": {
    "xt": "urn:btih:4d6f77e63a295b8f495c82782c1d709faa5eb493",
    "dn": "The.Martian.2015.HD-TS.XVID.AC3.HQ.Hive-CM8",
    "tr": [
      "udp://exodus.desync.com:6969",
      "udp://open.demonii.com:1337",
      "udp://tracker.coppersurfer.tk:6969",
      "udp://tracker.leechers-paradise.org:6969",
      "udp://zer0day.ch:1337"
    ],
    "infoHash": "4d6f77e63a295b8f495c82782c1d709faa5eb493",
    "infoHashBuffer": {
      "type": "Buffer",
      "data": [
        77,
        111,
        119,
        230,
        58,
        41,
        91,
        143,
        73,
        92,
        130,
        120,
        44,
        29,
        112,
        159,
        170,
        94,
        180,
        147
      ]
    },
    "name": "The.Martian.2015.HD-TS.XVID.AC3.HQ.Hive-CM8",
    "announce": [
      "udp://exodus.desync.com:6969",
      "udp://open.demonii.com:1337",
      "udp://tracker.coppersurfer.tk:6969",
      "udp://tracker.leechers-paradise.org:6969",
      "udp://zer0day.ch:1337"
    ],
    "urlList": []
  },
  "previous": 222,
  "peers": 178,
  "last_updated": "2016-12-26T23:45:04.642Z"
}